<?xml version="1.0" encoding="utf-8"?>
<!-- Generator: Adobe Illustrator 15.0.0, SVG Export Plug-In . SVG Version: 6.00 Build 0)  -->
<!DOCTYPE svg PUBLIC "-//W3C//DTD SVG 1.1//EN" "http://www.w3.org/Graphics/SVG/1.1/DTD/svg11.dtd">
<svg version="1.1" id="Layer_1" xmlns="http://www.w3.org/2000/svg" xmlns:xlink="http://www.w3.org/1999/xlink" x="0px" y="0px"
	 width="1931.433px" height="349.482px" viewBox="0 0 1931.433 349.482" enable-background="new 0 0 1931.433 349.482"
	 xml:space="preserve">
<text transform="matrix(1 0 0 1 0 268.9766)" fill="#B0D9D9" font-family="'MontserratAlternates-Regular'" font-size="354.1501">any</text>
<text transform="matrix(1 0 0 1 695.1958 268.9766)" fill="#6A2B80" font-family="'MontserratAlternates-Regular'" font-size="354.1501">share</text>
<text transform="matrix(1 0 0 1 1317.5229 268.9766)" fill="#B0D9D9" font-family="'MontserratAlternates-Regular'" font-size="200">.</text>
<g>
	<defs>
		<rect id="SVGID_1_" x="-26.567" y="-162.098" width="2000" height="612"/>
	</defs>
	<clipPath id="SVGID_2_">
		<use xlink:href="#SVGID_1_"  overflow="visible"/>
	</clipPath>
	<path clip-path="url(#SVGID_2_)" fill="#FBB268" d="M1901.067,141.253h-40.869c-4.39,0-7.98-3.592-7.98-7.982V92.403
		c0-4.39,3.591-7.982,7.98-7.982h40.869c4.39,0,7.982,3.592,7.982,7.982v40.868C1909.049,137.661,1905.457,141.253,1901.067,141.253
		"/>
	<path clip-path="url(#SVGID_2_)" fill="#F37955" d="M1835.64,141.253h-40.869c-4.391,0-7.981-3.592-7.981-7.982V92.403
		c0-4.39,3.591-7.982,7.981-7.982h40.869c4.39,0,7.981,3.592,7.981,7.982v40.868C1843.622,137.661,1840.03,141.253,1835.64,141.253"
		/>
	<path clip-path="url(#SVGID_2_)" fill="#EF4345" d="M1770.212,141.253h-40.869c-4.39,0-7.98-3.592-7.98-7.982V92.403
		c0-4.39,3.591-7.982,7.98-7.982h40.869c4.39,0,7.982,3.592,7.982,7.982v40.868C1778.195,137.661,1774.602,141.253,1770.212,141.253
		"/>
	<path clip-path="url(#SVGID_2_)" fill="#E5EBAB" d="M1901.067,207.625h-40.869c-4.39,0-7.98-3.592-7.98-7.982v-40.868
		c0-4.39,3.591-7.981,7.98-7.981h40.869c4.39,0,7.982,3.592,7.982,7.981v40.868C1909.049,204.033,1905.457,207.625,1901.067,207.625
		"/>
	<path clip-path="url(#SVGID_2_)" fill="#D790AA" d="M1835.64,207.625h-40.869c-4.391,0-7.981-3.592-7.981-7.982v-40.868
		c0-4.39,3.591-7.981,7.981-7.981h40.869c4.39,0,7.981,3.592,7.981,7.981v40.868C1843.622,204.033,1840.03,207.625,1835.64,207.625"
		/>
	<path clip-path="url(#SVGID_2_)" fill="#EF5F9D" d="M1770.212,207.625h-40.869c-4.39,0-7.98-3.592-7.98-7.982v-40.868
		c0-4.39,3.591-7.981,7.98-7.981h40.869c4.39,0,7.982,3.592,7.982,7.981v40.868C1778.195,204.033,1774.602,207.625,1770.212,207.625
		"/>
	<path clip-path="url(#SVGID_2_)" fill="#74D0F3" d="M1901.067,273.996h-40.869c-4.39,0-7.98-3.592-7.98-7.981v-40.868
		c0-4.39,3.591-7.982,7.98-7.982h40.869c4.39,0,7.982,3.593,7.982,7.982v40.868C1909.049,270.404,1905.457,273.996,1901.067,273.996
		"/>
	<path clip-path="url(#SVGID_2_)" fill="#B1A9D4" d="M1835.64,273.996h-40.869c-4.391,0-7.981-3.592-7.981-7.981v-40.868
		c0-4.39,3.591-7.982,7.981-7.982h40.869c4.39,0,7.981,3.593,7.981,7.982v40.868C1843.622,270.404,1840.03,273.996,1835.64,273.996"
		/>
	<path clip-path="url(#SVGID_2_)" fill="#D08ABB" d="M1770.212,273.996h-40.869c-4.39,0-7.98-3.592-7.98-7.981v-40.868
		c0-4.39,3.591-7.982,7.98-7.982h40.869c4.39,0,7.982,3.593,7.982,7.982v40.868C1778.195,270.404,1774.602,273.996,1770.212,273.996
		"/>
</g>
</svg>
