<?xml version="1.0" ?><svg height="32" id="svg4475" version="1.1" width="32" xmlns="http://www.w3.org/2000/svg" xmlns:cc="http://creativecommons.org/ns#" xmlns:dc="http://purl.org/dc/elements/1.1/" xmlns:inkscape="http://www.inkscape.org/namespaces/inkscape" xmlns:rdf="http://www.w3.org/1999/02/22-rdf-syntax-ns#" xmlns:sodipodi="http://sodipodi.sourceforge.net/DTD/sodipodi-0.dtd" xmlns:svg="http://www.w3.org/2000/svg"><defs id="defs4477"/><g id="layer1" transform="translate(0,-1020.3622)"><g id="g10414" transform="translate(309.5948,-461.25192)"><g id="g15415" transform="translate(66.405195,515.25192)"><g id="g15417" transform="translate(-150,-49.999983)"><g id="g14600" transform="translate(-49.999995,-130.00002)"><path d="M 11.875 2.96875 A 0.48761081 0.51280658 0 0 0 11.59375 3.25 L 11.0625 4.34375 L 9.9375 4.5 A 0.48761081 0.51280658 0 0 0 9.625 5.375 L 10.4375 6.21875 L 10.25 7.40625 A 0.48761081 0.51280658 0 0 0 10.96875 7.9375 L 11.96875 7.40625 L 13 7.96875 A 0.48761081 0.51280658 0 0 0 13.5625 7.875 L 14.59375 8.6875 A 0.48761081 0.51280658 0 0 0 14.625 9.375 L 15.4375 10.21875 L 15.25 11.40625 A 0.48761081 0.51280658 0 0 0 15.96875 11.9375 L 16.5 11.65625 L 16.5 13.9375 L 16.0625 14.84375 L 14.9375 15 A 0.48761081 0.51280658 0 0 0 14.5 15.5 L 8.09375 15.5 L 8.3125 15.28125 A 0.48834895 0.51203137 0 0 0 8.0625 14.4375 L 6.59375 14.1875 L 5.9375 12.78125 A 0.48834895 0.51203137 0 0 0 5.40625 12.5 A 0.48834895 0.51203137 0 0 0 5.0625 12.75 L 4.40625 14.15625 L 2.9375 14.375 A 0.48834895 0.51203137 0 0 0 2.65625 15.25 L 3.71875 16.34375 L 3.4375 17.90625 A 0.48834895 0.51203137 0 0 0 4.15625 18.40625 L 5.46875 17.71875 L 6.78125 18.4375 A 0.48834895 0.51203137 0 0 0 7.5 17.90625 L 7.28125 16.5 L 15.21875 16.5 L 15.4375 16.71875 L 15.25 17.90625 A 0.48761081 0.51280658 0 0 0 15.96875 18.4375 L 16.5 18.15625 L 16.5 20.4375 L 16.0625 21.34375 L 14.9375 21.5 A 0.48761081 0.51280658 0 0 0 14.625 22.375 L 15.4375 23.21875 L 15.375 23.625 L 13.21875 25.375 L 12.9375 25.34375 L 12.4375 24.28125 A 0.48761081 0.51280658 0 0 0 11.9375 23.96875 A 0.48761081 0.51280658 0 0 0 11.59375 24.25 L 11.0625 25.34375 L 9.9375 25.5 A 0.48761081 0.51280658 0 0 0 9.625 26.375 L 10.4375 27.21875 L 10.25 28.40625 A 0.48761081 0.51280658 0 0 0 10.96875 28.9375 L 11.96875 28.40625 L 13 28.96875 A 0.48761081 0.51280658 0 0 0 13.6875 28.4375 L 13.5 27.25 L 14.34375 26.40625 A 0.48761081 0.51280658 0 0 0 14.375 25.75 L 15.40625 24.90625 A 0.48761081 0.51280658 0 0 0 15.96875 24.9375 L 16.96875 24.40625 L 18 24.96875 A 0.48761081 0.51280658 0 0 0 18.6875 24.4375 L 18.5 23.25 L 19.34375 22.40625 A 0.48761081 0.51280658 0 0 0 19.0625 21.53125 L 17.9375 21.34375 L 17.5 20.40625 L 17.5 18.1875 L 18 18.46875 A 0.48761081 0.51280658 0 0 0 18.6875 17.9375 L 18.5 16.75 L 18.75 16.5 L 25.21875 16.5 L 25.4375 16.71875 L 25.25 17.90625 A 0.48761081 0.51280658 0 0 0 25.96875 18.4375 L 26.96875 17.90625 L 28 18.46875 A 0.48761081 0.51280658 0 0 0 28.6875 17.9375 L 28.5 16.75 L 29.34375 15.90625 A 0.48761081 0.51280658 0 0 0 29.0625 15.03125 L 27.9375 14.84375 L 27.4375 13.78125 A 0.48761081 0.51280658 0 0 0 26.9375 13.46875 A 0.48761081 0.51280658 0 0 0 26.59375 13.75 L 26.0625 14.84375 L 24.9375 15 A 0.48761081 0.51280658 0 0 0 24.5 15.5 L 19.46875 15.5 A 0.48761081 0.51280658 0 0 0 19.0625 15.03125 L 17.9375 14.84375 L 17.5 13.90625 L 17.5 11.6875 L 18 11.96875 A 0.48761081 0.51280658 0 0 0 18.6875 11.4375 L 18.5 10.25 L 19.34375 9.40625 A 0.48761081 0.51280658 0 0 0 19.0625 8.53125 L 17.9375 8.34375 L 17.4375 7.28125 A 0.48761081 0.51280658 0 0 0 16.9375 6.96875 A 0.48761081 0.51280658 0 0 0 16.59375 7.25 L 16.0625 8.34375 L 15.78125 8.375 L 13.5625 6.59375 L 13.5 6.25 L 14.34375 5.40625 A 0.48761081 0.51280658 0 0 0 14.0625 4.53125 L 12.9375 4.34375 L 12.4375 3.28125 A 0.48761081 0.51280658 0 0 0 11.9375 2.96875 A 0.48761081 0.51280658 0 0 0 11.875 2.96875 z M 12 4.65625 L 12.1875 5.03125 A 0.48761081 0.51280658 0 0 0 12.53125 5.3125 L 12.96875 5.375 L 12.65625 5.6875 A 0.48761081 0.51280658 0 0 0 12.5 6.15625 L 12.5625 6.5625 L 12.21875 6.375 A 0.48761081 0.51280658 0 0 0 11.75 6.34375 L 11.375 6.5625 L 11.46875 6.125 A 0.48761081 0.51280658 0 0 0 11.3125 5.6875 L 11.03125 5.375 L 11.4375 5.3125 A 0.48761081 0.51280658 0 0 0 11.8125 5.03125 L 12 4.65625 z M 17 8.65625 L 17.1875 9.03125 A 0.48761081 0.51280658 0 0 0 17.53125 9.3125 L 17.96875 9.375 L 17.65625 9.6875 A 0.48761081 0.51280658 0 0 0 17.5 10.15625 L 17.5625 10.5625 L 17.21875 10.375 A 0.48761081 0.51280658 0 0 0 16.75 10.34375 L 16.375 10.5625 L 16.46875 10.125 A 0.48761081 0.51280658 0 0 0 16.3125 9.6875 L 16.03125 9.375 L 16.4375 9.3125 A 0.48761081 0.51280658 0 0 0 16.8125 9.03125 L 17 8.65625 z M 5.5 14.15625 L 5.8125 14.875 A 0.48834895 0.51203137 0 0 0 6.1875 15.15625 L 6.9375 15.25 L 6.375 15.8125 A 0.48834895 0.51203137 0 0 0 6.25 16.25 L 6.375 17.03125 L 5.71875 16.6875 A 0.48834895 0.51203137 0 0 0 5.25 16.6875 L 4.5625 17.03125 L 4.71875 16.25 A 0.48834895 0.51203137 0 0 0 4.5625 15.8125 L 4.03125 15.25 L 4.78125 15.15625 A 0.48834895 0.51203137 0 0 0 5.15625 14.875 L 5.5 14.15625 z M 17 15.15625 L 17.1875 15.53125 A 0.48761081 0.51280658 0 0 0 17.53125 15.8125 L 17.9375 15.875 L 17.9375 15.90625 L 17.65625 16.1875 A 0.48761081 0.51280658 0 0 0 17.5 16.65625 L 17.5625 17.0625 L 17.21875 16.875 A 0.48761081 0.51280658 0 0 0 16.75 16.84375 L 16.375 17.0625 L 16.46875 16.625 A 0.48761081 0.51280658 0 0 0 16.3125 16.1875 L 16.03125 15.875 L 16.4375 15.8125 A 0.48761081 0.51280658 0 0 0 16.8125 15.53125 L 17 15.15625 z M 27 15.15625 L 27.1875 15.53125 A 0.48761081 0.51280658 0 0 0 27.53125 15.8125 L 27.96875 15.875 L 27.65625 16.1875 A 0.48761081 0.51280658 0 0 0 27.5 16.65625 L 27.5625 17.0625 L 27.21875 16.875 A 0.48761081 0.51280658 0 0 0 26.75 16.84375 L 26.375 17.0625 L 26.46875 16.625 A 0.48761081 0.51280658 0 0 0 26.3125 16.1875 L 26.03125 15.875 L 26.4375 15.8125 A 0.48761081 0.51280658 0 0 0 26.8125 15.53125 L 27 15.15625 z M 17 21.65625 L 17.1875 22.03125 A 0.48761081 0.51280658 0 0 0 17.53125 22.3125 L 17.96875 22.375 L 17.65625 22.6875 A 0.48761081 0.51280658 0 0 0 17.5 23.15625 L 17.5625 23.5625 L 17.21875 23.375 A 0.48761081 0.51280658 0 0 0 16.75 23.34375 L 16.375 23.5625 L 16.46875 23.125 A 0.48761081 0.51280658 0 0 0 16.3125 22.6875 L 16.03125 22.375 L 16.4375 22.3125 A 0.48761081 0.51280658 0 0 0 16.8125 22.03125 L 17 21.65625 z M 12 25.65625 L 12.1875 26.03125 A 0.48761081 0.51280658 0 0 0 12.53125 26.3125 L 12.96875 26.375 L 12.65625 26.6875 A 0.48761081 0.51280658 0 0 0 12.5 27.15625 L 12.5625 27.5625 L 12.21875 27.375 A 0.48761081 0.51280658 0 0 0 11.75 27.34375 L 11.375 27.5625 L 11.46875 27.125 A 0.48761081 0.51280658 0 0 0 11.3125 26.6875 L 11.03125 26.375 L 11.4375 26.3125 A 0.48761081 0.51280658 0 0 0 11.8125 26.03125 L 12 25.65625 z " id="path13123" style="font-size:medium;font-style:normal;font-variant:normal;font-weight:normal;font-stretch:normal;text-indent:0;text-align:start;text-decoration:none;line-height:normal;letter-spacing:normal;word-spacing:normal;text-transform:none;direction:ltr;block-progression:tb;writing-mode:lr-tb;text-anchor:start;baseline-shift:baseline;color:#000000;fill:#000000;fill-opacity:1;stroke:none;stroke-width:1;marker:none;visibility:visible;display:inline;overflow:visible;enable-background:accumulate;font-family:Sans;-inkscape-font-specification:Sans" transform="translate(-176,1146.3622)"/></g></g></g></g></g></svg>